<svg width="26" height="26" viewBox="0 0 26 26" fill="none" xmlns="http://www.w3.org/2000/svg">
<path fill-rule="evenodd" clip-rule="evenodd" d="M7.60067 1.78316C7.65098 1.73271 7.71076 1.69269 7.77656 1.66539C7.84237 1.63808 7.91292 1.62402 7.98417 1.62402C8.05541 1.62402 8.12596 1.63808 8.19177 1.66539C8.25758 1.69269 8.31735 1.73271 8.36767 1.78316L9.56475 2.98133C10.4925 2.44489 11.5459 2.1638 12.6176 2.16666H13.3824C14.455 2.16374 15.5091 2.44522 16.4374 2.98241L17.6367 1.78316C17.7384 1.68159 17.8763 1.62459 18.02 1.62469C18.1637 1.62479 18.3016 1.68199 18.4031 1.7837C18.5047 1.88541 18.5617 2.0233 18.5616 2.16704C18.5615 2.31078 18.5043 2.44859 18.4026 2.55016L17.3366 3.61616C18.0151 4.19024 18.5602 4.90545 18.9338 5.71187C19.3075 6.5183 19.5007 7.39654 19.5 8.28533C19.4997 8.38656 19.4593 8.48355 19.3876 8.55504C19.3159 8.62652 19.2188 8.66666 19.1176 8.66666H6.88242C6.78099 8.66666 6.68372 8.62637 6.61201 8.55465C6.54029 8.48293 6.5 8.38567 6.5 8.28424C6.5 6.41224 7.34067 4.73633 8.66667 3.61507L7.60067 2.55016C7.55022 2.49984 7.5102 2.44007 7.48289 2.37426C7.45559 2.30845 7.44153 2.23791 7.44153 2.16666C7.44153 2.09541 7.45559 2.02486 7.48289 1.95906C7.5102 1.89325 7.55022 1.83347 7.60067 1.78316ZM11.375 5.68749C11.375 5.90298 11.2894 6.10964 11.137 6.26202C10.9847 6.41439 10.778 6.49999 10.5625 6.49999C10.347 6.49999 10.1403 6.41439 9.98798 6.26202C9.8356 6.10964 9.75 5.90298 9.75 5.68749C9.75 5.472 9.8356 5.26534 9.98798 5.11297C10.1403 4.96059 10.347 4.87499 10.5625 4.87499C10.778 4.87499 10.9847 4.96059 11.137 5.11297C11.2894 5.26534 11.375 5.472 11.375 5.68749ZM15.4093 6.49999C15.6248 6.49999 15.8315 6.41439 15.9839 6.26202C16.1362 6.10964 16.2218 5.90298 16.2218 5.68749C16.2218 5.472 16.1362 5.26534 15.9839 5.11297C15.8315 4.96059 15.6248 4.87499 15.4093 4.87499C15.1938 4.87499 14.9872 4.96059 14.8348 5.11297C14.6824 5.26534 14.5968 5.472 14.5968 5.68749C14.5968 5.90298 14.6824 6.10964 14.8348 6.26202C14.9872 6.41439 15.1938 6.49999 15.4093 6.49999Z" fill="#272728"/>
<path d="M4.33333 9.69263C4.04602 9.69263 3.77047 9.80676 3.5673 10.0099C3.36414 10.2131 3.25 10.4886 3.25 10.776V17.276C3.25 17.5633 3.36414 17.8388 3.5673 18.042C3.77047 18.2452 4.04602 18.3593 4.33333 18.3593C4.62065 18.3593 4.8962 18.2452 5.09937 18.042C5.30253 17.8388 5.41667 17.5633 5.41667 17.276V10.776C5.41667 10.4886 5.30253 10.2131 5.09937 10.0099C4.8962 9.80676 4.62065 9.69263 4.33333 9.69263ZM7.58333 9.69263C7.29602 9.69263 7.02047 9.80676 6.8173 10.0099C6.61414 10.2131 6.5 10.4886 6.5 10.776V20.526C6.5 20.8133 6.61414 21.0888 6.8173 21.292C7.02047 21.4952 7.29602 21.6093 7.58333 21.6093H18.4167C18.704 21.6093 18.9795 21.4952 19.1827 21.292C19.3859 21.0888 19.5 20.8133 19.5 20.526V10.776C19.5 10.4886 19.3859 10.2131 19.1827 10.0099C18.9795 9.80676 18.704 9.69263 18.4167 9.69263H7.58333ZM20.8108 10.776C20.8108 10.4886 20.925 10.2131 21.1281 10.0099C21.3313 9.80676 21.6068 9.69263 21.8942 9.69263C22.1815 9.69263 22.457 9.80676 22.6602 10.0099C22.8634 10.2131 22.9775 10.4886 22.9775 10.776V17.276C22.9775 17.5633 22.8634 17.8388 22.6602 18.042C22.457 18.2452 22.1815 18.3593 21.8942 18.3593C21.6068 18.3593 21.3313 18.2452 21.1281 18.042C20.925 17.8388 20.8108 17.5633 20.8108 17.276V10.776ZM8.44242 22.75C8.40064 22.75 8.35928 22.7583 8.3207 22.7743C8.28211 22.7903 8.24707 22.8138 8.21759 22.8434C8.1881 22.873 8.16474 22.9081 8.14885 22.9467C8.13296 22.9854 8.12486 23.0268 8.125 23.0685V23.2917C8.125 23.7945 8.32474 24.2767 8.68028 24.6323C9.03581 24.9878 9.51803 25.1875 10.0208 25.1875C10.5236 25.1875 11.0059 24.9878 11.3614 24.6323C11.7169 24.2767 11.9167 23.7945 11.9167 23.2917V23.0685C11.9168 23.0268 11.9087 22.9854 11.8928 22.9467C11.8769 22.9081 11.8536 22.873 11.8241 22.8434C11.7946 22.8138 11.7596 22.7903 11.721 22.7743C11.6824 22.7583 11.641 22.75 11.5992 22.75H8.44242ZM14.0833 23.0685C14.0833 22.892 14.2253 22.75 14.4008 22.75H17.5565C17.7331 22.75 17.875 22.892 17.875 23.0685V23.2917C17.875 23.7945 17.6753 24.2767 17.3197 24.6323C16.9642 24.9878 16.482 25.1875 15.9792 25.1875C15.4764 25.1875 14.9941 24.9878 14.6386 24.6323C14.2831 24.2767 14.0833 23.7945 14.0833 23.2917V23.0685Z" fill="#272728"/>
</svg>
