<svg width="20" height="20" viewBox="0 0 20 20" fill="none" xmlns="http://www.w3.org/2000/svg">
<path d="M2.55464 6.25866C3.24798 4.87803 4.31161 3.71742 5.62666 2.90655C6.94171 2.09568 8.45636 1.66651 10.0013 1.66699C12.2471 1.66699 14.1338 2.49283 15.5763 3.83783L13.1871 6.22783C12.323 5.40199 11.2246 4.98116 10.0013 4.98116C7.83047 4.98116 5.99297 6.44783 5.3388 8.41699C5.17214 8.91699 5.07714 9.45033 5.07714 10.0003C5.07714 10.5503 5.17214 11.0837 5.3388 11.5837C5.9938 13.5537 7.83047 15.0195 10.0013 15.0195C11.1221 15.0195 12.0763 14.7237 12.823 14.2237C13.2558 13.9387 13.6264 13.5688 13.9123 13.1366C14.1982 12.7043 14.3935 12.2185 14.4863 11.7087H10.0013V8.48533H17.8496C17.948 9.03033 18.0013 9.59866 18.0013 10.1895C18.0013 12.7278 17.093 14.8645 15.5163 16.3145C14.138 17.5878 12.2513 18.3337 10.0013 18.3337C8.90683 18.3341 7.823 18.1188 6.81176 17.7002C5.80051 17.2816 4.88168 16.6678 4.10777 15.8939C3.33386 15.12 2.72005 14.2011 2.30141 13.1899C1.88278 12.1786 1.66753 11.0948 1.66797 10.0003C1.66797 8.65533 1.98964 7.38366 2.55464 6.25866Z" fill="#272728"/>
</svg>
