<svg width="17" height="17" viewBox="0 0 17 17" fill="none" xmlns="http://www.w3.org/2000/svg">
<path d="M11.6478 2H4.7565C4.02543 2 3.3243 2.29042 2.80736 2.80736C2.29042 3.3243 2 4.02543 2 4.7565V11.6478C2 12.3788 2.29042 13.08 2.80736 13.5969C3.3243 14.1138 4.02543 14.4043 4.7565 14.4043H11.6478C12.3788 14.4043 13.08 14.1138 13.5969 13.5969C14.1138 13.08 14.4043 12.3788 14.4043 11.6478V4.7565C14.4043 4.02543 14.1138 3.3243 13.5969 2.80736C13.08 2.29042 12.3788 2 11.6478 2Z" fill="#272728" stroke="#272728" stroke-width="4" stroke-linejoin="round"/>
<path d="M8.20181 10.9583C8.93288 10.9583 9.63401 10.6679 10.151 10.151C10.6679 9.63401 10.9583 8.93288 10.9583 8.20181C10.9583 7.47074 10.6679 6.76962 10.151 6.25267C9.63401 5.73573 8.93288 5.44531 8.20181 5.44531C7.47074 5.44531 6.76962 5.73573 6.25267 6.25267C5.73573 6.76962 5.44531 7.47074 5.44531 8.20181C5.44531 8.93288 5.73573 9.63401 6.25267 10.151C6.76962 10.6679 7.47074 10.9583 8.20181 10.9583Z" fill="#E5F5FF" stroke="#E5F5FF" stroke-width="2" stroke-linejoin="round"/>
<path d="M11.9938 5.10091C12.1766 5.10091 12.3519 5.0283 12.4811 4.89907C12.6103 4.76983 12.6829 4.59455 12.6829 4.41178C12.6829 4.22901 12.6103 4.05373 12.4811 3.9245C12.3519 3.79526 12.1766 3.72266 11.9938 3.72266C11.811 3.72266 11.6358 3.79526 11.5065 3.9245C11.3773 4.05373 11.3047 4.22901 11.3047 4.41178C11.3047 4.59455 11.3773 4.76983 11.5065 4.89907C11.6358 5.0283 11.811 5.10091 11.9938 5.10091Z" fill="#E6F5FF"/>
</svg>
