<svg width="32" height="32" viewBox="0 0 32 32" fill="none" xmlns="http://www.w3.org/2000/svg">
<path d="M5.99871 23.0267C5.80937 23.0267 5.65115 22.9622 5.52404 22.8333C5.39693 22.7044 5.33293 22.5458 5.33204 22.3573C5.33115 22.1689 5.39515 22.0107 5.52404 21.8827C5.65293 21.7547 5.81115 21.6911 5.99871 21.692H25.9987C26.188 21.692 26.3463 21.756 26.4734 21.884C26.6014 22.012 26.6654 22.1707 26.6654 22.36C26.6654 22.5493 26.6014 22.7076 26.4734 22.8347C26.3454 22.9618 26.1872 23.0253 25.9987 23.0253L5.99871 23.0267ZM5.99871 16.6667C5.80937 16.6667 5.65115 16.6027 5.52404 16.4747C5.39693 16.3467 5.33293 16.188 5.33204 15.9987C5.33115 15.8093 5.39515 15.6511 5.52404 15.524C5.65293 15.3969 5.81115 15.3333 5.99871 15.3333H25.9987C26.188 15.3333 26.3463 15.3973 26.4734 15.5253C26.6005 15.6533 26.6645 15.812 26.6654 16.0013C26.6663 16.1907 26.6023 16.3489 26.4734 16.476C26.3445 16.6031 26.1863 16.6667 25.9987 16.6667H5.99871ZM5.99871 10.3067C5.80937 10.3067 5.65115 10.2431 5.52404 10.116C5.39604 9.988 5.33204 9.82934 5.33204 9.64C5.33204 9.45067 5.39604 9.29245 5.52404 9.16534C5.65204 9.03823 5.81026 8.97467 5.99871 8.97467H25.9987C26.188 8.97467 26.3463 9.03867 26.4734 9.16667C26.6005 9.29467 26.6645 9.45245 26.6654 9.64C26.6663 9.82756 26.6023 9.98578 26.4734 10.1147C26.3445 10.2436 26.1863 10.3076 25.9987 10.3067H5.99871Z" fill="#272728"/>
</svg>
