<svg width="18" height="18" viewBox="0 0 18 18" fill="none" xmlns="http://www.w3.org/2000/svg">
<g clip-path="url(#clip0_3273_620)">
<path d="M7.75661 11.9042C7.28321 14.3828 6.70631 16.7588 4.99541 17.9999C4.46801 14.2541 5.77031 11.4416 6.37601 8.4554C5.34371 6.7184 6.50021 3.2246 8.67551 4.0859C11.353 5.1443 6.35711 10.5407 9.71051 11.2157C13.2124 11.9186 14.6416 5.1407 12.4699 2.9366C9.33341 -0.247603 3.33851 2.8619 4.07651 7.4204C4.25561 8.5346 5.40671 8.8721 4.53641 10.4102C2.52851 9.9656 1.92911 8.3816 2.00651 6.2702C2.13071 2.8142 5.11061 0.395897 8.10041 0.0601968C11.8813 -0.363703 15.43 1.4489 15.9205 5.0048C16.4722 9.0197 14.2141 13.3685 10.1704 13.0553C9.07421 12.9698 8.61521 12.4262 7.75661 11.9042Z" fill="#272728"/>
</g>
<defs>
<clipPath id="clip0_3273_620">
<rect width="18" height="18" fill="white"/>
</clipPath>
</defs>
</svg>
