<svg width="22" height="22" viewBox="0 0 22 22" fill="none" xmlns="http://www.w3.org/2000/svg">
<path d="M11.1089 11.715C11.0447 11.7058 10.9622 11.7058 10.8889 11.715C9.27552 11.66 7.99219 10.34 7.99219 8.71751C7.99219 7.05835 9.33052 5.71085 10.9989 5.71085C12.658 5.71085 14.0055 7.05835 14.0055 8.71751C13.9964 10.34 12.7222 11.66 11.1089 11.715Z" stroke="#272728" stroke-width="1.5" stroke-linecap="round" stroke-linejoin="round"/>
<path d="M17.177 17.765C15.5453 19.2592 13.382 20.1667 10.9986 20.1667C8.61531 20.1667 6.45198 19.2592 4.82031 17.765C4.91198 16.9033 5.46198 16.06 6.44281 15.4C8.95448 13.7317 13.0611 13.7317 15.5545 15.4C16.5353 16.06 17.0853 16.9033 17.177 17.765Z" stroke="#272728" stroke-width="1.5" stroke-linecap="round" stroke-linejoin="round"/>
<path d="M10.9987 20.1667C16.0613 20.1667 20.1654 16.0626 20.1654 11C20.1654 5.9374 16.0613 1.83334 10.9987 1.83334C5.93609 1.83334 1.83203 5.9374 1.83203 11C1.83203 16.0626 5.93609 20.1667 10.9987 20.1667Z" stroke="#272728" stroke-width="1.5" stroke-linecap="round" stroke-linejoin="round"/>
</svg>
