<svg width="22" height="22" viewBox="0 0 22 22" fill="none" xmlns="http://www.w3.org/2000/svg">
<path d="M19.25 6.41668V15.5833C19.25 18.3333 17.875 20.1667 14.6667 20.1667H7.33333C4.125 20.1667 2.75 18.3333 2.75 15.5833V6.41668C2.75 3.66668 4.125 1.83334 7.33333 1.83334H14.6667C17.875 1.83334 19.25 3.66668 19.25 6.41668Z" stroke="#292D32" stroke-width="1.5" stroke-miterlimit="10" stroke-linecap="round" stroke-linejoin="round"/>
<path d="M13.293 4.125V5.95833C13.293 6.96667 14.118 7.79167 15.1263 7.79167H16.9596" stroke="#292D32" stroke-width="1.5" stroke-miterlimit="10" stroke-linecap="round" stroke-linejoin="round"/>
<path d="M6.85834 14.1991C6.55584 13.255 6.91332 12.0908 7.89415 11.77C8.41665 11.605 9.05832 11.7425 9.41582 12.2466C9.75499 11.7241 10.4242 11.605 10.9375 11.77C11.9275 12.0908 12.2758 13.255 11.9825 14.1991C11.515 15.6933 9.87415 16.4724 9.41582 16.4724C8.96665 16.4633 7.34417 15.7025 6.85834 14.1991Z" stroke="#292D32" stroke-width="1.5" stroke-linecap="round" stroke-linejoin="round"/>
</svg>
