<svg width="16" height="16" viewBox="0 0 16 16" fill="none" xmlns="http://www.w3.org/2000/svg">
<path d="M2.25 8C2.25 7.80108 2.32902 7.61032 2.46967 7.46967C2.61032 7.32901 2.80109 7.25 3 7.25H7.25C7.44891 7.25 7.63968 7.32901 7.78033 7.46967C7.92098 7.61032 8 7.80108 8 8C8 8.19891 7.92098 8.38967 7.78033 8.53033C7.63968 8.67098 7.44891 8.75 7.25 8.75H3C2.80109 8.75 2.61032 8.67098 2.46967 8.53033C2.32902 8.38967 2.25 8.19891 2.25 8ZM3 4.75H6.25C6.44891 4.75 6.63968 4.67098 6.78033 4.53033C6.92098 4.38967 7 4.19891 7 4C7 3.80108 6.92098 3.61032 6.78033 3.46967C6.63968 3.32901 6.44891 3.25 6.25 3.25H3C2.80109 3.25 2.61032 3.32901 2.46967 3.46967C2.32902 3.61032 2.25 3.80108 2.25 4C2.25 4.19891 2.32902 4.38967 2.46967 4.53033C2.61032 4.67098 2.80109 4.75 3 4.75ZM11.25 11.25H3C2.80109 11.25 2.61032 11.329 2.46967 11.4697C2.32902 11.6103 2.25 11.8011 2.25 12C2.25 12.1989 2.32902 12.3897 2.46967 12.5303C2.61032 12.671 2.80109 12.75 3 12.75H11.25C11.4489 12.75 11.6397 12.671 11.7803 12.5303C11.921 12.3897 12 12.1989 12 12C12 11.8011 11.921 11.6103 11.7803 11.4697C11.6397 11.329 11.4489 11.25 11.25 11.25ZM14.5306 4.96937L12.0306 2.46937C11.9609 2.39945 11.8782 2.34397 11.787 2.30612C11.6958 2.26826 11.5981 2.24878 11.4994 2.24878C11.4007 2.24878 11.3029 2.26826 11.2118 2.30612C11.1206 2.34397 11.0378 2.39945 10.9681 2.46937L8.46813 4.96937C8.32723 5.11027 8.24807 5.30136 8.24807 5.50062C8.24807 5.69988 8.32723 5.89097 8.46813 6.03187C8.60902 6.17277 8.80012 6.25192 8.99938 6.25192C9.19863 6.25192 9.38973 6.17277 9.53063 6.03187L10.75 4.8125V9C10.75 9.19891 10.829 9.38967 10.9697 9.53033C11.1103 9.67098 11.3011 9.75 11.5 9.75C11.6989 9.75 11.8897 9.67098 12.0303 9.53033C12.171 9.38967 12.25 9.19891 12.25 9V4.8125L13.4694 6.0325C13.5391 6.10226 13.622 6.1576 13.7131 6.19536C13.8043 6.23311 13.902 6.25255 14.0006 6.25255C14.0993 6.25255 14.197 6.23311 14.2881 6.19536C14.3793 6.1576 14.4621 6.10226 14.5319 6.0325C14.6016 5.96273 14.657 5.87991 14.6947 5.78876C14.7325 5.6976 14.7519 5.59991 14.7519 5.50125C14.7519 5.40258 14.7325 5.30489 14.6947 5.21374C14.657 5.12258 14.6016 5.03976 14.5319 4.97L14.5306 4.96937Z" fill="#272728"/>
</svg>
