<svg width="21" height="21" viewBox="0 0 21 21" fill="none" xmlns="http://www.w3.org/2000/svg">
<path d="M18.4736 9.54669L15.0177 12.5422L16.053 17.002C16.1077 17.2351 16.0921 17.4791 16.008 17.7035C15.9239 17.9279 15.7751 18.1227 15.5802 18.2635C15.3852 18.4043 15.1528 18.4849 14.912 18.4953C14.6712 18.5056 14.4326 18.4452 14.2262 18.3217L10.3097 15.9624L6.40166 18.3217C6.1952 18.4452 5.95664 18.5056 5.71582 18.4953C5.47499 18.4849 5.24258 18.4043 5.04764 18.2635C4.8527 18.1227 4.70388 17.9279 4.61979 17.7035C4.5357 17.4791 4.52006 17.2351 4.57485 17.002L5.60856 12.5468L2.15187 9.54669C1.96904 9.39008 1.83683 9.18335 1.77183 8.95242C1.70683 8.72148 1.71193 8.47663 1.78648 8.24856C1.86103 8.02049 2.00173 7.81936 2.19091 7.67039C2.3801 7.52142 2.60936 7.43124 2.84995 7.41117L7.40625 7.01922L9.18479 2.80601C9.27767 2.58494 9.43433 2.3961 9.63505 2.26327C9.83576 2.13045 10.0716 2.05957 10.3128 2.05957C10.5539 2.05957 10.7898 2.13045 10.9905 2.26327C11.1912 2.3961 11.3478 2.58494 11.4407 2.80601L13.2246 7.01922L17.7794 7.41117C18.02 7.43124 18.2492 7.52142 18.4384 7.67039C18.6276 7.81936 18.7683 8.02049 18.8429 8.24856C18.9174 8.47663 18.9225 8.72148 18.8575 8.95242C18.7925 9.18335 18.6603 9.39008 18.4775 9.54669H18.4736Z" fill="#D9D9E9"/>
</svg>
