<svg width="15" height="15" viewBox="0 0 15 15" fill="none" xmlns="http://www.w3.org/2000/svg">
<path d="M13.7393 6.70196L11.0967 9.00821L11.8883 12.4418C11.9302 12.6213 11.9182 12.8092 11.8539 12.9819C11.7896 13.1546 11.6758 13.3046 11.5268 13.413C11.3777 13.5214 11.2 13.5835 11.0158 13.5915C10.8317 13.5994 10.6493 13.553 10.4914 13.4578L7.49669 11.6414L4.50841 13.4578C4.35054 13.553 4.16813 13.5994 3.98398 13.5915C3.79983 13.5835 3.62212 13.5214 3.47306 13.413C3.32399 13.3046 3.2102 13.1546 3.1459 12.9819C3.0816 12.8092 3.06965 12.6213 3.11154 12.4418L3.90197 9.01172L1.2588 6.70196C1.119 6.58139 1.01791 6.42222 0.96821 6.24443C0.918507 6.06663 0.922403 5.87812 0.979411 5.70253C1.03642 5.52694 1.144 5.37209 1.28866 5.2574C1.43332 5.1427 1.60863 5.07328 1.79259 5.05782L5.27658 4.75606L6.63654 1.51231C6.70756 1.3421 6.82735 1.19672 6.98082 1.09445C7.1343 0.992189 7.31461 0.937622 7.49904 0.937622C7.68346 0.937622 7.86377 0.992189 8.01725 1.09445C8.17073 1.19672 8.29052 1.3421 8.36154 1.51231L9.7256 4.75606L13.2084 5.05782C13.3924 5.07328 13.5677 5.1427 13.7123 5.2574C13.857 5.37209 13.9646 5.52694 14.0216 5.70253C14.0786 5.87812 14.0825 6.06663 14.0328 6.24443C13.9831 6.42222 13.882 6.58139 13.7422 6.70196H13.7393Z" fill="#FFCD00"/>
</svg>
