<svg width="16" height="16" viewBox="0 0 16 16" fill="none" xmlns="http://www.w3.org/2000/svg">
<path d="M15.2743 3.76687L13.1508 6.00085C12.7289 11.1887 8.58051 15.2188 3.62348 15.2188C2.60395 15.2188 1.7602 15.0481 1.12035 14.7141C0.607072 14.4395 0.396135 14.1501 0.339885 14.061C0.293344 13.9864 0.263355 13.9017 0.252151 13.8131C0.240947 13.7246 0.248817 13.6345 0.275174 13.5496C0.301532 13.4647 0.345697 13.3872 0.404381 13.3228C0.463064 13.2584 0.534752 13.2089 0.614103 13.1778C0.628166 13.1704 2.28754 12.5024 3.36332 11.2184C2.69616 10.717 2.10976 10.1055 1.6266 9.40749C0.663322 8.02702 -0.356209 5.62976 0.255509 2.05241C0.274739 1.94606 0.320822 1.84717 0.388891 1.76617C0.456959 1.68518 0.544486 1.62509 0.642228 1.59226C0.740282 1.55837 0.845277 1.5536 0.945727 1.57847C1.04618 1.60334 1.13821 1.65689 1.21176 1.73327C1.23285 1.76296 3.57426 4.19734 6.43598 4.98405V4.53132C6.43874 4.06056 6.52932 3.59498 6.70255 3.16117C6.87577 2.72736 7.12825 2.33382 7.44557 2.00301C7.76288 1.6722 8.13882 1.4106 8.55192 1.23315C8.96502 1.05571 9.40718 0.965887 9.85317 0.96882C10.4385 0.977632 11.0117 1.14634 11.5169 1.4585C12.0221 1.77066 12.4421 2.21564 12.736 2.75007H14.8735C14.9845 2.7497 15.0932 2.78404 15.1858 2.84876C15.2784 2.91348 15.3508 3.00568 15.3938 3.11374C15.4343 3.22341 15.4446 3.34296 15.4234 3.45854C15.4023 3.57412 15.3506 3.68102 15.2743 3.76687Z" fill="#272728"/>
</svg>
