<svg width="15" height="15" viewBox="0 0 15 15" fill="none" xmlns="http://www.w3.org/2000/svg">
<path d="M13.5547 6.53387L10.9784 8.78226L11.7502 12.1297C11.791 12.3047 11.7794 12.4879 11.7167 12.6563C11.654 12.8247 11.543 12.9709 11.3977 13.0766C11.2524 13.1823 11.0791 13.2428 10.8996 13.2505C10.7201 13.2583 10.5422 13.213 10.3883 13.1202L7.46875 11.3494L4.55544 13.1202C4.40153 13.213 4.2237 13.2583 4.04417 13.2505C3.86464 13.2428 3.69138 13.1823 3.54606 13.0766C3.40074 12.9709 3.2898 12.8247 3.22711 12.6563C3.16443 12.4879 3.15277 12.3047 3.19361 12.1297L3.96421 8.78569L1.38736 6.53387C1.25107 6.41633 1.15252 6.26116 1.10406 6.08782C1.0556 5.91449 1.0594 5.7307 1.11498 5.55952C1.17056 5.38834 1.27544 5.23737 1.41647 5.12556C1.5575 5.01374 1.72841 4.94605 1.90776 4.93098L5.30433 4.6368L6.63017 1.47443C6.69941 1.3085 6.8162 1.16676 6.96582 1.06706C7.11545 0.96736 7.29123 0.914162 7.47103 0.914162C7.65083 0.914162 7.82662 0.96736 7.97624 1.06706C8.12587 1.16676 8.24266 1.3085 8.31189 1.47443L9.64173 4.6368L13.0372 4.93098C13.2165 4.94605 13.3874 5.01374 13.5285 5.12556C13.6695 5.23737 13.7744 5.38834 13.8299 5.55952C13.8855 5.7307 13.8893 5.91449 13.8409 6.08782C13.7924 6.26116 13.6939 6.41633 13.5576 6.53387H13.5547Z" fill="white"/>
</svg>
